<mxfile host="app.diagrams.net" modified="2023-10-08T03:16:58.149Z" agent="Mozilla/5.0 (Windows NT 10.0; Win64; x64) AppleWebKit/537.36 (KHTML, like Gecko) Chrome/117.0.0.0 Safari/537.36 Edg/117.0.2045.60" etag="JTpYM6EsJJwk3ZLsno1P" version="21.6.9" type="github">
  <diagram name="Page-1" id="90a13364-a465-7bf4-72fc-28e22215d7a0">
    <mxGraphModel dx="1100" dy="791" grid="1" gridSize="10" guides="1" tooltips="1" connect="1" arrows="1" fold="1" page="1" pageScale="1.5" pageWidth="1169" pageHeight="826" background="none" math="0" shadow="0">
      <root>
        <mxCell id="0" style=";html=1;" />
        <mxCell id="1" style=";html=1;" parent="0" />
        <mxCell id="h6418GeDz7PB0_4hY6kB-1" value="&lt;font style=&quot;font-size: 19px;&quot;&gt;substring&lt;/font&gt;" style="rounded=0;whiteSpace=wrap;html=1;" vertex="1" parent="1">
          <mxGeometry x="310" y="160" width="120" height="40" as="geometry" />
        </mxCell>
        <mxCell id="h6418GeDz7PB0_4hY6kB-2" value="&lt;span style=&quot;font-size: 19px;&quot;&gt;buffer&lt;/span&gt;" style="rounded=0;whiteSpace=wrap;html=1;" vertex="1" parent="1">
          <mxGeometry x="390" y="240" width="280" height="40" as="geometry" />
        </mxCell>
        <mxCell id="h6418GeDz7PB0_4hY6kB-3" value="&lt;font style=&quot;font-size: 19px;&quot;&gt;已重组但还未读&lt;/font&gt;" style="rounded=0;whiteSpace=wrap;html=1;" vertex="1" parent="1">
          <mxGeometry x="70" y="160" width="190" height="40" as="geometry" />
        </mxCell>
        <mxCell id="h6418GeDz7PB0_4hY6kB-4" value="&lt;font style=&quot;font-size: 19px;&quot;&gt;substring&lt;/font&gt;" style="rounded=0;whiteSpace=wrap;html=1;" vertex="1" parent="1">
          <mxGeometry x="310" y="360" width="120" height="40" as="geometry" />
        </mxCell>
        <mxCell id="h6418GeDz7PB0_4hY6kB-5" value="&lt;span style=&quot;font-size: 19px;&quot;&gt;扩充后的 buffer&lt;/span&gt;" style="rounded=0;whiteSpace=wrap;html=1;" vertex="1" parent="1">
          <mxGeometry x="310" y="440" width="360" height="40" as="geometry" />
        </mxCell>
        <mxCell id="h6418GeDz7PB0_4hY6kB-6" value="&lt;font style=&quot;font-size: 19px;&quot;&gt;已重组但还未读&lt;/font&gt;" style="rounded=0;whiteSpace=wrap;html=1;" vertex="1" parent="1">
          <mxGeometry x="70" y="360" width="190" height="40" as="geometry" />
        </mxCell>
        <mxCell id="h6418GeDz7PB0_4hY6kB-7" value="" style="endArrow=classic;html=1;rounded=0;exitX=0.5;exitY=1;exitDx=0;exitDy=0;" edge="1" parent="1" source="h6418GeDz7PB0_4hY6kB-2">
          <mxGeometry width="50" height="50" relative="1" as="geometry">
            <mxPoint x="528.04" y="280" as="sourcePoint" />
            <mxPoint x="532" y="440" as="targetPoint" />
          </mxGeometry>
        </mxCell>
        <mxCell id="h6418GeDz7PB0_4hY6kB-10" value="&lt;font style=&quot;font-size: 19px;&quot;&gt;已重组但还未读&lt;/font&gt;" style="rounded=0;whiteSpace=wrap;html=1;" vertex="1" parent="1">
          <mxGeometry x="70" y="550" width="190" height="40" as="geometry" />
        </mxCell>
        <mxCell id="h6418GeDz7PB0_4hY6kB-14" value="" style="endArrow=none;html=1;rounded=0;exitX=0.306;exitY=1;exitDx=0;exitDy=0;exitPerimeter=0;" edge="1" parent="1">
          <mxGeometry width="50" height="50" relative="1" as="geometry">
            <mxPoint x="420.1600000000001" y="590" as="sourcePoint" />
            <mxPoint x="420" y="550" as="targetPoint" />
          </mxGeometry>
        </mxCell>
        <mxCell id="h6418GeDz7PB0_4hY6kB-15" value="&lt;font style=&quot;font-size: 19px;&quot;&gt;substring&lt;/font&gt;" style="rounded=0;whiteSpace=wrap;html=1;" vertex="1" parent="1">
          <mxGeometry x="310" y="550" width="120" height="40" as="geometry" />
        </mxCell>
        <mxCell id="h6418GeDz7PB0_4hY6kB-16" value="&lt;font style=&quot;font-size: 19px;&quot;&gt;buffer&lt;/font&gt;" style="rounded=0;whiteSpace=wrap;html=1;" vertex="1" parent="1">
          <mxGeometry x="430" y="550" width="240" height="40" as="geometry" />
        </mxCell>
        <mxCell id="h6418GeDz7PB0_4hY6kB-17" value="" style="endArrow=classic;html=1;rounded=0;" edge="1" parent="1">
          <mxGeometry width="50" height="50" relative="1" as="geometry">
            <mxPoint x="450" y="490" as="sourcePoint" />
            <mxPoint x="450" y="540" as="targetPoint" />
          </mxGeometry>
        </mxCell>
      </root>
    </mxGraphModel>
  </diagram>
</mxfile>
